<svg width="23" height="23" viewBox="0 0 23 23" fill="none" xmlns="http://www.w3.org/2000/svg">
<g clip-path="url(#clip0_270_8289)">
<path d="M11.7941 0.213623C5.66584 0.213623 0.682129 5.20503 0.682129 11.3427C0.682129 17.4804 5.66584 22.4718 11.7941 22.4718C17.9223 22.4718 22.906 17.4804 22.906 11.3427C22.906 5.20503 17.9223 0.213623 11.7941 0.213623ZM11.7941 1.60476C12.1149 1.60476 12.4678 1.76752 12.8678 2.20295C13.2706 2.63699 13.6776 3.32977 14.0234 4.21871C14.3484 5.04922 14.611 6.05501 14.8082 7.16932H8.77997C8.97721 6.05641 9.23973 5.04922 9.56475 4.21871C9.91061 3.33116 10.319 2.63699 10.7204 2.20156C11.1204 1.76892 11.4732 1.60476 11.7941 1.60476ZM9.155 1.9748C8.82164 2.47561 8.52717 3.05433 8.27021 3.71373C7.84831 4.83104 7.54296 5.98906 7.35903 7.16932H3.01564C3.60961 5.91485 4.4648 4.80225 5.52374 3.90628C6.58268 3.01031 7.82083 2.35174 9.155 1.9748ZM14.4332 1.9748C15.7673 2.35174 17.0055 3.01031 18.0644 3.90628C19.1234 4.80225 19.9786 5.91485 20.5725 7.16932H16.2291C16.0452 5.98906 15.7399 4.83104 15.318 3.71373C15.0858 3.10415 14.7892 2.5212 14.4332 1.9748ZM2.4781 8.56045H7.19235C7.09047 9.48444 7.03715 10.4131 7.03261 11.3427C7.03261 12.311 7.09929 13.2305 7.19235 14.125H2.4781C2.20881 13.2222 2.07173 12.285 2.07112 11.3427C2.07112 10.3745 2.21697 9.44244 2.4781 8.56045ZM8.59246 8.56045H14.9957C15.0943 9.448 15.1666 10.3689 15.1666 11.3427C15.1666 12.3165 15.0943 13.2347 14.9957 14.125H8.59246C8.49384 13.2347 8.42161 12.3165 8.42161 11.3427C8.42161 10.3689 8.49384 9.448 8.59246 8.56045ZM16.3944 8.56045H21.1101C21.3712 9.44244 21.5171 10.3745 21.5171 11.3427C21.5171 12.311 21.3712 13.243 21.1101 14.125H16.3944C16.4889 13.2305 16.5556 12.311 16.5556 11.3427C16.5556 10.3745 16.4889 9.45357 16.3944 8.56045ZM3.01842 15.5161H7.35903C7.57016 16.8043 7.8799 17.9757 8.27021 18.9745C8.52578 19.6325 8.82025 20.2085 9.15222 20.7079C7.81933 20.3306 6.58242 19.6721 5.5245 18.7766C4.46658 17.8812 3.61211 16.7695 3.01842 15.5161ZM8.78275 15.5161H14.8054C14.6096 16.6291 14.3471 17.6404 14.0234 18.4695C13.6776 19.3585 13.2692 20.0499 12.8678 20.4867C12.4678 20.9207 12.1149 21.0807 11.7941 21.0807C11.4732 21.0807 11.1204 20.9207 10.7204 20.4853C10.3176 20.0499 9.91061 19.3585 9.56475 18.4695C9.24112 17.6404 8.9786 16.6291 8.78275 15.5161ZM16.2291 15.5161H20.5698C19.9761 16.7695 19.1216 17.8812 18.0637 18.7766C17.0058 19.6721 15.7689 20.3306 14.436 20.7079C14.7679 20.2071 15.061 19.6325 15.318 18.9745C15.7069 17.9757 16.018 16.8043 16.2291 15.5161Z" fill="white"/>
</g>
<defs>
<clipPath id="clip0_270_8289">
<rect width="22.2239" height="22.2582" fill="white" transform="translate(0.682129 0.213623)"/>
</clipPath>
</defs>
</svg>
