<svg width="22" height="22" viewBox="0 0 22 22" fill="none" xmlns="http://www.w3.org/2000/svg">
<g opacity="0.5">
<g clip-path="url(#clip0_238_16196)">
<path d="M11 0C4.9335 0 0 4.9335 0 11C0 17.0665 4.9335 22 11 22C17.0665 22 22 17.0665 22 11C22 4.9335 17.0665 0 11 0ZM11 1.375C11.3176 1.375 11.6669 1.53587 12.0629 1.96625C12.4616 2.39525 12.8645 3.08 13.2069 3.95862C13.5286 4.7795 13.7885 5.77362 13.9838 6.875H8.01625C8.2115 5.775 8.47137 4.7795 8.79313 3.95862C9.1355 3.08137 9.53975 2.39525 9.93713 1.96487C10.3331 1.53725 10.6824 1.375 11 1.375ZM8.3875 1.74075C8.0575 2.23575 7.766 2.80775 7.51162 3.4595C7.09398 4.56385 6.7917 5.70844 6.60963 6.875H2.31C2.89799 5.63509 3.74456 4.53539 4.79283 3.64982C5.8411 2.76425 7.06678 2.11331 8.3875 1.74075ZM13.6125 1.74075C14.9332 2.11331 16.1589 2.76425 17.2072 3.64982C18.2554 4.53539 19.102 5.63509 19.69 6.875H15.3904C15.2083 5.70844 14.906 4.56385 14.4884 3.4595C14.2585 2.857 13.9649 2.28081 13.6125 1.74075ZM1.77787 8.25H6.44462C6.34377 9.16326 6.29099 10.0812 6.2865 11C6.2865 11.957 6.3525 12.8659 6.44462 13.75H1.77787C1.5113 12.8576 1.3756 11.9313 1.375 11C1.375 10.043 1.51937 9.12175 1.77787 8.25ZM7.83063 8.25H14.1694C14.267 9.12725 14.3385 10.0375 14.3385 11C14.3385 11.9625 14.267 12.87 14.1694 13.75H7.83063C7.733 12.87 7.6615 11.9625 7.6615 11C7.6615 10.0375 7.733 9.12725 7.83063 8.25ZM15.554 8.25H20.2221C20.4806 9.12175 20.625 10.043 20.625 11C20.625 11.957 20.4806 12.8783 20.2221 13.75H15.554C15.6475 12.8659 15.7135 11.957 15.7135 11C15.7135 10.043 15.6475 9.13275 15.554 8.25ZM2.31275 15.125H6.60963C6.81863 16.3983 7.12525 17.556 7.51162 18.5433C7.76462 19.1936 8.05612 19.7629 8.38475 20.2565C7.06529 19.8836 5.84085 19.2327 4.79358 18.3477C3.74632 17.4626 2.90046 16.3638 2.31275 15.125ZM8.019 15.125H13.981C13.7871 16.225 13.5272 17.2246 13.2069 18.0441C12.8645 18.9228 12.4602 19.6061 12.0629 20.0379C11.6669 20.4669 11.3176 20.625 11 20.625C10.6824 20.625 10.3331 20.4669 9.93713 20.0365C9.53837 19.6061 9.1355 18.9228 8.79313 18.0441C8.47275 17.2246 8.21287 16.225 8.019 15.125ZM15.3904 15.125H19.6873C19.0995 16.3638 18.2537 17.4626 17.2064 18.3477C16.1592 19.2327 14.9347 19.8836 13.6153 20.2565C13.9439 19.7615 14.234 19.1936 14.4884 18.5433C14.8734 17.556 15.1814 16.3983 15.3904 15.125Z" fill="white"/>
</g>
</g>
<defs>
<clipPath id="clip0_238_16196">
<rect width="22" height="22" fill="white"/>
</clipPath>
</defs>
</svg>
