<svg width="29" height="18" viewBox="0 0 29 18" fill="none" xmlns="http://www.w3.org/2000/svg">
<g opacity="0.5">
<path d="M1 16.8292C3.21331 16.7097 3.94641 16.973 5.69496 14.385C6.62974 13.0019 7.38739 10.5051 7.97141 8.92759C9.73049 4.18299 13.6099 0.914623 18.147 1.0017C23.5523 1.10497 25.2693 6.90866 25.62 10.0353C25.1149 9.41967 24.2521 8.32009 22.9209 8.00824C21.1794 7.60121 19.2888 8.87292 18.8012 10.9121C18.4557 12.3539 18.8556 15.1201 21.0303 16.4039C23.419 17.8154 26.3496 16.9932 28.0999 14.707" stroke="white" stroke-width="1.6" stroke-linecap="round" stroke-linejoin="round"/>
<path d="M24.3252 7.06892C22.8064 5.77899 20.7211 4.71991 18.7569 4.78876C13.4463 4.97709 10.9261 11.8095 11.8328 16.6634" stroke="white" stroke-width="1.6" stroke-linecap="round" stroke-linejoin="round"/>
</g>
</svg>
