<svg width="21" height="21" viewBox="0 0 21 21" fill="none" xmlns="http://www.w3.org/2000/svg">
<path d="M18.375 6.16V3.0625C18.375 2.25027 18.0523 1.47132 17.478 0.896986C16.9037 0.322655 16.1247 0 15.3125 0H3.0625C2.25027 0 1.47132 0.322655 0.896986 0.896986C0.322655 1.47132 0 2.25027 0 3.0625V17.9375C0 18.7497 0.322655 19.5287 0.896986 20.103C1.47132 20.6773 2.25027 21 3.0625 21H17.9375C18.7497 21 19.5287 20.6773 20.103 20.103C20.6773 19.5287 21 18.7497 21 17.9375V9.1875C20.9991 8.45169 20.7334 7.74079 20.2514 7.18486C19.7693 6.62892 19.1033 6.26511 18.375 6.16ZM12.2019 19.25H3.0625C2.7144 19.25 2.38056 19.1117 2.13442 18.8656C1.88828 18.6194 1.75 18.2856 1.75 17.9375V3.0625C1.75 2.7144 1.88828 2.38056 2.13442 2.13442C2.38056 1.88828 2.7144 1.75 3.0625 1.75H15.3125C15.6606 1.75 15.9944 1.88828 16.2406 2.13442C16.4867 2.38056 16.625 2.7144 16.625 3.0625V19.25H12.2019ZM19.25 17.9375C19.2492 18.2083 19.1647 18.4722 19.0081 18.6931C18.8514 18.914 18.6303 19.081 18.375 19.1712V7.95375C18.6303 8.04401 18.8514 8.21103 19.0081 8.43191C19.1647 8.65279 19.2492 8.91671 19.25 9.1875V17.9375Z" fill="white"/>
<path d="M14.4375 9.77807H3.9375C3.70544 9.77807 3.48288 9.87026 3.31878 10.0344C3.15469 10.1985 3.0625 10.421 3.0625 10.6531C3.0625 10.8851 3.15469 11.1077 3.31878 11.2718C3.48288 11.4359 3.70544 11.5281 3.9375 11.5281H14.4375C14.6696 11.5281 14.8921 11.4359 15.0562 11.2718C15.2203 11.1077 15.3125 10.8851 15.3125 10.6531C15.3125 10.421 15.2203 10.1985 15.0562 10.0344C14.8921 9.87026 14.6696 9.77807 14.4375 9.77807ZM14.4375 13.0856H3.9375C3.70544 13.0856 3.48288 13.1778 3.31878 13.3419C3.15469 13.5059 3.0625 13.7285 3.0625 13.9606C3.0625 14.1926 3.15469 14.4152 3.31878 14.5793C3.48288 14.7434 3.70544 14.8356 3.9375 14.8356H14.4375C14.6696 14.8356 14.8921 14.7434 15.0562 14.5793C15.2203 14.4152 15.3125 14.1926 15.3125 13.9606C15.3125 13.7285 15.2203 13.5059 15.0562 13.3419C14.8921 13.1778 14.6696 13.0856 14.4375 13.0856ZM14.4375 6.40057H3.9375C3.70544 6.40057 3.48288 6.49276 3.31878 6.65686C3.15469 6.82095 3.0625 7.04351 3.0625 7.27557C3.0625 7.50764 3.15469 7.7302 3.31878 7.89429C3.48288 8.05839 3.70544 8.15057 3.9375 8.15057H14.4375C14.6696 8.15057 14.8921 8.05839 15.0562 7.89429C15.2203 7.7302 15.3125 7.50764 15.3125 7.27557C15.3125 7.04351 15.2203 6.82095 15.0562 6.65686C14.8921 6.49276 14.6696 6.40057 14.4375 6.40057Z" fill="white"/>
</svg>
