<svg width="160" height="160" viewBox="0 0 160 160" fill="none" xmlns="http://www.w3.org/2000/svg">
<circle cx="80" cy="80" r="78" fill="white" stroke="#5356FF" stroke-width="4"/>
<path d="M95.6668 103.267H64.3335C62.9335 103.267 61.3668 102.167 60.9002 100.833L47.1002 62.2334C45.1335 56.7 47.4335 55 52.1668 58.4L65.1668 67.7C67.3335 69.2 69.8002 68.4334 70.7335 66L76.6001 50.3667C78.4668 45.3667 81.5668 45.3667 83.4334 50.3667L89.3001 66C90.2334 68.4334 92.7001 69.2 94.8334 67.7L107.033 59C112.233 55.2667 114.733 57.1667 112.6 63.2L99.1334 100.9C98.6334 102.167 97.0668 103.267 95.6668 103.267Z" stroke="#292D32" stroke-width="5" stroke-linecap="round" stroke-linejoin="round"/>
<path d="M61.6667 113.333H98.3334" stroke="#292D32" stroke-width="5" stroke-linecap="round" stroke-linejoin="round"/>
<path d="M71.6667 86.6667H88.3334" stroke="#292D32" stroke-width="5" stroke-linecap="round" stroke-linejoin="round"/>
</svg>
